<svg xmlns="http://www.w3.org/2000/svg" viewBox="0 0 302 42.92"><defs><style>.cls-1,.cls-2{fill:#fff;}.cls-2{stroke:#fff;stroke-miterlimit:10;stroke-width:5.67px;}</style></defs><g id="Layer_2" data-name="Layer 2"><g id="Layer_1-2" data-name="Layer 1"><path class="cls-1" d="M34.09,26c0,12.63-3.44,18.1-12,18.1-8,0-11.53-5.56-11.53-18.27,0-12.21,3.95-17.47,11.86-17.47C30.53,8.33,34.09,14,34.09,26ZM18.82,25.8c0,8.51.77,12.05,3.49,12.05s3.51-3.3,3.51-12c0-8.18-.68-11.21-3.51-11.21S18.82,17.77,18.82,25.8Z" transform="translate(0 -8.33)"/><path class="cls-1" d="M46,9V33.09c0,2.24.47,4.77,3.27,4.77s3.19-2.18,3.19-4.74V9h8V32.87c0,7-3.44,11.2-11.33,11.2s-11-4.15-11-11.27V9Z" transform="translate(0 -8.33)"/><path class="cls-1" d="M70,15.44h-6.8V9H84.61v6.48H77.85v28H70Z" transform="translate(0 -8.33)"/><path class="cls-1" d="M87.66,9H97.5c9,0,12.66,5.11,12.66,16.57,0,12.21-3.62,17.89-12.94,17.89H87.66Zm8,28.45h1.47c3.68,0,4.76-2.6,4.76-12,0-7.87-1-10.36-4.71-10.36H95.61Z" transform="translate(0 -8.33)"/><path class="cls-1" d="M137.16,26c0,12.63-3.45,18.1-12,18.1-8,0-11.53-5.56-11.53-18.27,0-12.21,3.94-17.47,11.85-17.47C133.59,8.33,137.16,14,137.16,26Zm-15.27-.17c0,8.51.77,12.05,3.48,12.05,2.87,0,3.52-3.3,3.52-12,0-8.18-.68-11.21-3.52-11.21S121.89,17.77,121.89,25.8Z" transform="translate(0 -8.33)"/><path class="cls-1" d="M164.2,26c0,12.63-3.45,18.1-12,18.1-8,0-11.53-5.56-11.53-18.27,0-12.21,3.94-17.47,11.85-17.47C160.64,8.33,164.2,14,164.2,26Zm-15.27-.17c0,8.51.77,12.05,3.49,12.05s3.51-3.3,3.51-12c0-8.18-.68-11.21-3.51-11.21S148.93,17.77,148.93,25.8Z" transform="translate(0 -8.33)"/><path class="cls-1" d="M176.24,29.32v14.1h-7.81V9h11.63c6.65,0,10,3.31,10,9.55,0,4.77-2.35,7-4.43,7.82,2.7,1.2,4,3.42,4,8.38V35.9a53.7,53.7,0,0,0,.37,7.52h-7.68a36.08,36.08,0,0,1-.54-7.76V34.47c0-4.08-.82-5.15-3.85-5.15Zm0-5.93h1.83c3,0,4.1-1.07,4.1-4.43,0-2.84-1-4.09-3.6-4.09h-2.33Z" transform="translate(0 -8.33)"/><path class="cls-1" d="M202.82,9h7.72V23.33c1.66-3.51,5-10.5,7-14.37h8.76l-7.76,13.5,7.91,21h-8.63L213,29.27,210.54,33V43.42h-7.72Z" transform="translate(0 -8.33)"/><path class="cls-1" d="M236.5,9V43.42h-7.92V9Z" transform="translate(0 -8.33)"/><path class="cls-1" d="M241.8,43.42V9h8.66c5.24,16.24,6.45,20.15,6.81,21.72h.14c-.34-4.33-.45-10-.45-15.39V9h7V43.42h-8.53C250,25.51,249,22,248.56,20.55h-.16c.28,4.15.42,10.53.42,16.16v6.71Z" transform="translate(0 -8.33)"/><path class="cls-1" d="M291.12,43.42H285.3A22,22,0,0,1,285,40.7c-1.49,2.68-4.06,3.37-6.77,3.37-6.87,0-10-5.16-10-17.66,0-13.65,4.71-18.06,12.23-18.06,9.73,0,10.51,7.7,10.6,10.38h-7.92c-.09-1.68-.32-4.14-2.94-4.14-2.95,0-3.67,3.86-3.67,11.88,0,8.28.71,11.38,3.55,11.38,2.41,0,3.13-2,3.13-5.73V29.91h-3.39V23.7h11.31Z" transform="translate(0 -8.33)"/><line class="cls-2" y1="40.09" x2="302" y2="40.09"/></g></g></svg>