<svg xmlns="http://www.w3.org/2000/svg" viewBox="0 0 280.56 35.74"><defs><style>.cls-1{fill:#fff;}</style></defs><g id="Layer_2" data-name="Layer 2"><g id="Layer_1-2" data-name="Layer 1"><path class="cls-1" d="M25.22,26c0,12.63-3.45,18.1-12,18.1-8,0-11.53-5.56-11.53-18.27,0-12.21,3.94-17.47,11.85-17.47C21.65,8.33,25.22,14,25.22,26ZM10,25.8c0,8.51.76,12.05,3.48,12.05,2.87,0,3.52-3.3,3.52-12,0-8.18-.68-11.21-3.52-11.21S10,17.77,10,25.8Z" transform="translate(-1.68 -8.33)"/><path class="cls-1" d="M37.12,9V33.09c0,2.24.47,4.77,3.27,4.77s3.2-2.18,3.2-4.74V9h7.95V32.87c0,7-3.43,11.2-11.32,11.2s-11-4.15-11-11.27V9Z" transform="translate(-1.68 -8.33)"/><path class="cls-1" d="M61.07,15.44H54.28V9H75.73v6.48H69v28h-7.9Z" transform="translate(-1.68 -8.33)"/><path class="cls-1" d="M78.78,9h9.84c9,0,12.67,5.11,12.67,16.57,0,12.21-3.62,17.89-13,17.89H78.78Zm8,28.45H88.2c3.69,0,4.77-2.6,4.77-12C93,17.53,92,15,88.25,15H86.73Z" transform="translate(-1.68 -8.33)"/><path class="cls-1" d="M128.28,26c0,12.63-3.44,18.1-12,18.1-8,0-11.53-5.56-11.53-18.27,0-12.21,3.94-17.47,11.86-17.47C124.72,8.33,128.28,14,128.28,26ZM113,25.8c0,8.51.77,12.05,3.49,12.05s3.51-3.3,3.51-12c0-8.18-.68-11.21-3.51-11.21S113,17.77,113,25.8Z" transform="translate(-1.68 -8.33)"/><path class="cls-1" d="M155.32,26c0,12.63-3.44,18.1-12,18.1-8,0-11.52-5.56-11.52-18.27,0-12.21,3.94-17.47,11.85-17.47C151.76,8.33,155.32,14,155.32,26Zm-15.27-.17c0,8.51.77,12.05,3.49,12.05,2.87,0,3.52-3.3,3.52-12,0-8.18-.69-11.21-3.52-11.21S140.05,17.77,140.05,25.8Z" transform="translate(-1.68 -8.33)"/><path class="cls-1" d="M167.36,29.32v14.1h-7.81V9h11.64c6.64,0,10,3.31,10,9.55,0,4.77-2.35,7-4.42,7.82,2.69,1.2,4,3.42,4,8.38V35.9a53.7,53.7,0,0,0,.37,7.52h-7.68a35.27,35.27,0,0,1-.55-7.76V34.47c0-4.08-.82-5.15-3.84-5.15Zm0-5.93h1.84c3,0,4.1-1.07,4.1-4.43,0-2.84-1-4.09-3.6-4.09h-2.34Z" transform="translate(-1.68 -8.33)"/><path class="cls-1" d="M193.94,9h7.73V23.33c1.66-3.51,5-10.5,7-14.37h8.76l-7.76,13.5,7.91,21H209L204.1,29.27,201.67,33V43.42h-7.73Z" transform="translate(-1.68 -8.33)"/><path class="cls-1" d="M227.62,9V43.42h-7.91V9Z" transform="translate(-1.68 -8.33)"/><path class="cls-1" d="M232.92,43.42V9h8.66c5.24,16.24,6.46,20.15,6.81,21.72h.14c-.34-4.33-.45-10-.45-15.39V9h7V43.42h-8.54c-5.44-17.91-6.47-21.38-6.85-22.87h-.16c.27,4.15.41,10.53.41,16.16v6.71Z" transform="translate(-1.68 -8.33)"/><path class="cls-1" d="M282.24,43.42h-5.82a26.62,26.62,0,0,1-.29-2.72c-1.49,2.68-4.06,3.37-6.76,3.37-6.88,0-10-5.16-10-17.66,0-13.65,4.71-18.06,12.23-18.06,9.74,0,10.52,7.7,10.6,10.38h-7.92c-.09-1.68-.32-4.14-2.94-4.14-2.95,0-3.67,3.86-3.67,11.88,0,8.28.71,11.38,3.56,11.38,2.4,0,3.12-2,3.12-5.73V29.91h-3.39V23.7h11.31Z" transform="translate(-1.68 -8.33)"/></g></g></svg>